<?xml version="1.0" standalone="no"?>
<!DOCTYPE svg PUBLIC "-//W3C//DTD SVG 20010904//EN"
 "http://www.w3.org/TR/2001/REC-SVG-20010904/DTD/svg10.dtd">
<svg version="1.0" xmlns="http://www.w3.org/2000/svg"
 width="618.000000pt" height="618.000000pt" viewBox="0 0 618.000000 618.000000"
 preserveAspectRatio="xMidYMid meet">
<metadata>
Created by potrace 1.14, written by Peter Selinger 2001-2017
</metadata>
<g transform="translate(0.000000,618.000000) scale(0.100000,-0.100000)"
fill="#000000" stroke="none">
<path d="M3580 6170 c0 -5 -5 -10 -10 -10 -15 0 -60 -47 -53 -54 4 -3 1 -6 -5
-6 -6 0 -9 -6 -6 -14 3 -9 -1 -13 -13 -13 -12 1 -17 -4 -16 -16 0 -10 -1 -16
-4 -13 -7 7 -32 -18 -26 -27 2 -4 -3 -10 -11 -13 -9 -3 -13 -11 -9 -18 4 -6
-1 -5 -10 2 -14 12 -16 11 -12 -7 2 -12 0 -19 -4 -17 -7 5 -46 -33 -46 -46 0
-3 -4 -10 -9 -15 -5 -5 -6 -3 -2 5 10 16 -2 15 -20 -2 -11 -11 -11 -16 -1 -19
7 -3 5 -6 -5 -6 -10 -1 -18 -6 -18 -12 0 -6 -8 -9 -19 -6 -12 3 -18 -1 -17
-12 0 -9 -5 -15 -11 -13 -7 1 -13 -5 -13 -14 0 -8 -4 -12 -10 -9 -9 5 -14 -7
-12 -26 1 -4 -6 -6 -16 -5 -10 0 -16 -5 -14 -13 3 -12 1 -12 -13 -1 -14 11
-16 11 -13 -1 2 -8 -2 -13 -9 -12 -7 2 -10 -4 -7 -12 4 -10 0 -15 -15 -15 -15
0 -19 -4 -14 -17 4 -11 3 -14 -6 -9 -8 5 -14 0 -18 -14 -3 -13 -11 -19 -20
-16 -8 3 -12 2 -9 -3 3 -5 -3 -11 -14 -14 -14 -3 -18 -10 -14 -21 4 -11 2 -16
-7 -14 -9 2 -13 -4 -11 -16 3 -17 1 -18 -11 -7 -13 10 -15 9 -10 -11 3 -13 2
-20 -2 -16 -4 4 -14 0 -22 -10 -8 -9 -12 -11 -8 -4 3 6 1 12 -5 12 -6 0 -8 5
-4 13 5 7 0 6 -11 -3 -11 -9 -16 -10 -11 -2 6 11 -11 17 -36 13 -5 0 -8 4 -8
9 0 6 -9 10 -21 10 -13 0 -18 4 -13 13 5 8 2 8 -9 -2 -12 -9 -17 -10 -17 -2 0
7 -4 10 -9 7 -5 -4 -12 0 -14 6 -4 10 -8 9 -16 -2 -10 -13 -11 -13 -12 0 0 10
-3 8 -9 -5 -5 -11 -9 -15 -9 -9 -1 7 -15 14 -31 16 -25 4 -30 2 -25 -11 3 -11
0 -10 -10 3 -8 11 -15 14 -15 8 0 -9 -5 -10 -17 -4 -10 5 -24 7 -30 5 -7 -3
-13 0 -13 7 0 6 -5 8 -11 5 -6 -4 -13 2 -16 14 -5 19 -15 25 -35 22 -5 0 -8 6
-8 15 0 10 -6 14 -15 11 -8 -4 -17 -1 -21 5 -5 7 -2 8 6 3 9 -6 11 -4 6 4 -5
7 -14 10 -22 7 -8 -3 -14 -1 -14 5 0 6 -4 7 -10 4 -5 -3 -10 -1 -10 5 0 6 -4
9 -9 6 -5 -4 -12 0 -14 6 -4 10 -6 10 -6 0 -1 -8 -9 -6 -23 8 -13 12 -24 16
-26 11 -2 -7 -10 -8 -21 -1 -10 5 -22 6 -26 2 -5 -4 -5 -1 0 7 6 11 3 13 -13
9 -12 -4 -25 -2 -28 4 -3 5 -12 7 -20 4 -8 -3 -14 -2 -14 3 0 5 -9 11 -20 14
-13 3 -18 1 -13 -6 4 -7 -6 -2 -21 11 -22 17 -32 19 -42 11 -11 -9 -15 -7 -20
5 -3 9 -17 16 -29 16 -13 0 -27 5 -30 10 -4 6 -14 9 -23 8 -10 -2 -16 3 -14
11 3 12 0 12 -12 1 -13 -10 -16 -10 -16 1 0 11 -2 11 -10 -1 -6 -10 -10 -11
-10 -2 0 6 -7 12 -15 12 -8 0 -15 5 -15 11 0 5 -5 7 -11 3 -6 -3 -15 0 -20 7
-7 11 -9 9 -9 -6 -1 -18 -2 -18 -11 3 -5 13 -14 20 -19 17 -6 -4 -21 0 -34 8
-18 12 -26 13 -36 4 -10 -9 -11 -9 -6 1 4 7 1 12 -8 12 -9 0 -16 5 -16 11 0 8
-5 8 -15 -1 -12 -10 -16 -9 -21 4 -3 9 -10 13 -15 10 -5 -3 -9 -1 -9 3 0 5
-12 10 -27 11 -15 1 -30 7 -34 13 -4 7 -18 10 -32 7 -15 -3 -26 -2 -25 1 0 3
0 13 -1 21 -1 13 -2 13 -11 0 -6 -9 -10 -11 -10 -3 0 7 -7 10 -15 7 -8 -4 -15
-1 -15 6 0 7 -8 10 -20 7 -11 -3 -23 0 -27 5 -4 7 -1 8 7 3 9 -5 11 -4 6 3 -4
7 -18 12 -32 12 -13 0 -24 3 -24 8 0 4 -9 13 -21 20 -17 11 -20 11 -14 0 6
-10 5 -11 -6 0 -7 6 -23 12 -36 12 -13 0 -23 6 -23 13 0 9 -3 8 -9 -2 -7 -11
-9 -11 -14 0 -3 10 -7 8 -13 -6 -4 -11 -16 -31 -26 -44 -14 -18 -15 -27 -7
-37 6 -8 8 -14 3 -14 -4 0 -3 -5 3 -11 6 -6 9 -18 6 -27 -4 -9 -2 -13 4 -9 6
4 11 1 10 -6 -1 -34 4 -48 15 -41 6 4 8 3 4 -4 -3 -6 -2 -13 4 -17 6 -4 8 -10
5 -15 -3 -5 -1 -11 5 -15 6 -4 8 -11 5 -16 -4 -5 -1 -9 5 -9 6 0 8 -4 5 -10
-3 -5 -1 -10 6 -10 8 0 8 -4 -1 -15 -11 -13 -10 -14 4 -9 12 5 15 2 9 -12 -4
-10 -2 -15 3 -11 6 3 16 -4 24 -16 12 -20 12 -21 -3 -8 -21 17 -22 8 -1 -13 8
-9 16 -25 17 -35 1 -11 3 -18 5 -16 8 8 33 -25 27 -35 -3 -5 1 -10 9 -10 14 0
22 -24 17 -52 0 -5 4 -8 10 -8 5 0 7 -6 3 -12 -5 -9 -2 -8 9 1 15 12 17 12 12
-2 -4 -8 -1 -18 4 -22 6 -3 9 -10 6 -15 -3 -5 3 -15 12 -22 10 -7 24 -25 32
-40 8 -15 18 -25 22 -22 5 3 6 -1 3 -9 -3 -8 2 -17 10 -20 9 -4 16 -13 16 -22
0 -8 5 -15 11 -15 5 0 7 -4 4 -10 -3 -5 1 -10 10 -10 10 0 15 -5 12 -14 -6
-15 27 -48 39 -38 4 4 4 -1 1 -10 -4 -12 -1 -18 9 -18 8 0 12 -4 9 -10 -3 -5
-1 -10 5 -10 6 0 15 -12 20 -26 6 -14 19 -28 30 -31 11 -3 20 -10 20 -15 0 -5
-4 -6 -10 -3 -6 3 -7 -1 -4 -9 3 -9 10 -13 15 -10 5 3 9 0 9 -6 0 -6 5 -8 10
-5 6 3 10 -1 10 -10 0 -9 4 -14 8 -11 5 3 8 -3 7 -12 -3 -25 -16 -52 -24 -49
-6 4 -41 -29 -41 -38 0 -3 0 -10 0 -16 0 -5 -4 -7 -10 -4 -5 3 -10 0 -10 -7 0
-7 -9 -19 -21 -26 -12 -8 -18 -19 -15 -28 3 -8 -1 -14 -10 -14 -11 0 -14 -6
-10 -16 3 -8 2 -12 -4 -9 -6 3 -10 -1 -10 -10 0 -9 -4 -13 -10 -10 -5 3 -10
-1 -10 -9 0 -20 -36 -57 -46 -48 -5 4 -2 -1 6 -11 7 -10 9 -17 4 -16 -21 4
-28 -2 -14 -11 13 -8 12 -10 -3 -10 -10 0 -15 -4 -12 -10 3 -5 -1 -10 -9 -10
-9 0 -16 -5 -16 -11 0 -5 6 -7 13 -3 8 5 8 2 -2 -9 -7 -9 -21 -17 -30 -17 -14
0 -14 -2 -1 -10 12 -8 12 -10 -3 -16 -9 -3 -14 -10 -11 -15 3 -5 0 -9 -5 -9
-6 0 -11 -7 -11 -15 0 -8 -7 -15 -17 -15 -9 0 -14 -3 -11 -6 4 -3 0 -17 -7
-31 -8 -15 -12 -30 -9 -35 3 -4 -1 -5 -9 -2 -8 3 -18 0 -23 -7 -5 -8 -3 -10 7
-4 12 8 12 6 0 -8 -7 -9 -10 -17 -5 -17 4 0 -1 -7 -12 -16 -10 -8 -12 -13 -4
-9 8 4 6 -1 -5 -10 -11 -9 -19 -21 -17 -26 1 -5 -3 -9 -9 -9 -6 0 -9 -7 -5
-15 5 -14 -6 -20 -28 -16 -5 1 -4 -5 4 -13 7 -10 8 -16 2 -16 -6 0 -14 -9 -17
-20 -4 -11 -10 -18 -15 -15 -5 3 -11 1 -14 -4 -4 -5 -1 -13 5 -17 8 -5 9 -3 4
6 -6 9 -4 11 5 5 10 -6 9 -11 -4 -21 -11 -7 -15 -18 -10 -25 4 -7 3 -10 -2 -7
-5 3 -17 -3 -26 -13 -12 -12 -13 -19 -5 -23 7 -2 4 -5 -5 -5 -10 -1 -18 -6
-18 -12 0 -5 6 -7 13 -4 6 4 3 -1 -8 -10 -11 -9 -19 -21 -17 -26 1 -5 -3 -9
-9 -9 -5 0 -8 -4 -5 -9 3 -5 -1 -11 -9 -15 -8 -3 -15 -15 -15 -27 0 -14 -5
-19 -14 -16 -10 4 -13 1 -9 -9 3 -7 0 -14 -7 -14 -6 0 -8 -4 -5 -10 3 -5 1
-10 -5 -10 -6 0 -8 -4 -5 -10 3 -5 1 -10 -5 -10 -7 0 -9 -7 -6 -16 5 -14 4
-15 -8 -5 -13 11 -15 9 -11 -8 2 -13 -1 -18 -9 -15 -9 3 -16 -6 -19 -25 -5
-22 -11 -29 -22 -25 -11 5 -14 2 -8 -12 5 -14 3 -16 -12 -11 -15 6 -16 5 -5
-8 9 -11 9 -15 1 -15 -7 0 -9 -4 -6 -10 3 -6 -1 -7 -10 -4 -10 4 -15 2 -13 -7
2 -9 -4 -13 -17 -11 -17 2 -17 1 -5 -8 13 -8 13 -11 1 -19 -7 -5 -11 -14 -7
-20 5 -7 1 -8 -10 -4 -11 4 -15 2 -11 -4 4 -6 -3 -13 -16 -17 -17 -5 -19 -8
-8 -15 11 -7 9 -10 -8 -16 -14 -4 -20 -12 -17 -21 3 -8 0 -13 -7 -11 -7 1 -11
-3 -10 -9 1 -7 -5 -11 -15 -10 -9 0 -16 -5 -15 -11 2 -7 -4 -13 -12 -13 -9 0
-12 -6 -8 -17 4 -11 3 -14 -5 -9 -7 4 -13 2 -13 -3 -1 -6 -2 -15 -3 -21 0 -5
-5 -11 -11 -12 -16 -3 -33 -22 -28 -30 2 -5 -3 -8 -11 -8 -9 0 -15 -3 -15 -7
4 -22 -2 -33 -13 -27 -8 5 -9 2 -5 -10 4 -9 3 -15 -2 -12 -9 6 -26 -22 -22
-37 1 -5 -2 -6 -6 -4 -5 2 -17 -5 -28 -16 -11 -11 -14 -17 -7 -12 11 6 11 3 1
-13 -7 -12 -16 -19 -19 -17 -4 2 -7 -2 -8 -10 -1 -8 -3 -21 -4 -29 -1 -8 -9
-12 -22 -9 -17 4 -18 3 -6 -6 11 -8 12 -11 2 -11 -7 0 -10 -5 -7 -10 3 -6 -1
-13 -9 -16 -9 -3 -13 -10 -10 -15 3 -5 0 -9 -6 -9 -6 0 -8 -4 -5 -10 3 -5 1
-10 -5 -10 -6 0 -8 -4 -5 -10 3 -5 -2 -10 -12 -10 -12 0 -14 -3 -6 -8 8 -5 8
-11 -1 -24 -7 -10 -16 -14 -20 -10 -5 4 -6 -2 -4 -13 2 -13 -2 -19 -11 -17
-12 3 -12 0 -1 -12 9 -12 9 -16 1 -16 -7 0 -9 -5 -6 -10 3 -5 -2 -10 -12 -10
-14 0 -15 -2 -4 -9 9 -6 10 -11 2 -15 -6 -4 -8 -12 -5 -18 4 -7 2 -8 -4 -4
-11 6 -16 -6 -13 -26 0 -5 -3 -8 -8 -8 -6 0 -8 -9 -6 -20 2 -11 0 -18 -6 -15
-5 4 -9 -6 -9 -20 0 -18 -4 -25 -13 -22 -10 4 -12 -3 -9 -25 3 -19 1 -28 -5
-25 -6 4 -9 -4 -7 -18 1 -14 -2 -25 -7 -25 -4 0 -6 -7 -3 -15 4 -8 1 -22 -6
-30 -6 -8 -9 -19 -5 -25 3 -5 0 -10 -7 -10 -8 0 -9 -3 -3 -8 12 -8 16 -44 5
-37 -14 9 -22 -15 -10 -30 8 -10 8 -15 -1 -20 -8 -6 -7 -10 2 -16 10 -6 10 -9
2 -9 -7 0 -10 -7 -7 -15 4 -8 2 -15 -3 -15 -4 0 -8 -38 -9 -84 0 -47 3 -83 6
-81 9 6 6 -42 -3 -51 -4 -4 1 -16 10 -27 10 -11 12 -17 6 -13 -9 5 -11 2 -7
-8 3 -9 11 -16 18 -16 6 0 4 -5 -4 -10 -11 -7 -11 -10 -2 -10 7 0 10 -4 7 -10
-3 -5 -1 -10 4 -10 6 0 11 -5 11 -11 0 -5 -4 -8 -8 -5 -5 3 -9 -1 -9 -9 0 -8
3 -13 5 -10 10 9 31 -17 25 -31 -3 -8 0 -14 7 -14 6 0 9 -4 6 -9 -4 -5 -1 -11
5 -13 6 -2 12 -16 12 -31 1 -15 7 -27 14 -27 6 0 15 -5 19 -12 5 -7 3 -8 -7
-3 -17 11 5 -20 34 -47 10 -9 19 -20 20 -25 1 -4 6 -7 11 -5 5 2 3 -5 -4 -15
-8 -10 -11 -15 -6 -11 5 4 17 -3 28 -15 11 -12 17 -16 13 -10 -3 7 -1 13 4 13
10 0 15 -14 12 -32 0 -5 4 -8 10 -8 5 0 7 -5 4 -10 -4 -6 -11 -8 -16 -4 -5 3
-8 0 -7 -8 2 -7 -3 -12 -10 -10 -8 1 -16 -7 -19 -18 -4 -13 -11 -19 -20 -16
-8 3 -11 1 -8 -4 3 -6 1 -10 -5 -10 -6 0 -8 -5 -5 -10 3 -6 1 -10 -5 -10 -6 0
-8 -5 -5 -10 3 -6 1 -10 -5 -10 -6 0 -8 -5 -4 -12 5 -8 0 -7 -11 2 -11 9 -16
10 -11 3 4 -8 2 -13 -4 -13 -6 0 -8 -5 -5 -10 3 -6 -1 -13 -9 -16 -9 -3 -16
-12 -16 -19 0 -7 -7 -16 -16 -19 -10 -4 -14 -14 -11 -26 3 -11 2 -18 -3 -15
-13 8 -19 -22 -7 -35 9 -10 9 -11 0 -6 -9 5 -13 -1 -13 -19 0 -14 4 -24 9 -21
4 3 7 -6 5 -19 -1 -16 3 -25 12 -25 8 0 14 -6 14 -13 0 -7 9 -20 20 -30 12
-10 18 -23 14 -30 -5 -8 -2 -7 9 2 11 9 17 10 17 2 0 -6 7 -11 16 -11 8 0 12
-4 9 -10 -3 -5 -2 -10 3 -10 15 0 52 -37 45 -44 -4 -4 3 -9 15 -13 12 -3 20
-9 17 -13 -3 -5 4 -12 16 -15 17 -6 19 -9 8 -16 -11 -7 -10 -9 4 -9 10 0 16
-4 13 -9 -4 -5 -1 -11 4 -13 7 -2 6 -10 -3 -22 -11 -15 -16 -16 -22 -6 -6 9
-4 11 5 5 9 -5 11 -4 6 3 -5 9 -14 7 -32 -4 -25 -17 -34 -31 -11 -18 9 6 10 4
0 -7 -16 -17 -17 -49 -1 -49 6 0 9 -3 5 -6 -3 -3 3 -22 14 -41 11 -19 17 -39
13 -44 -3 -5 -2 -9 3 -8 21 4 33 -2 33 -16 0 -8 4 -15 9 -15 5 0 13 -9 16 -20
4 -11 11 -18 16 -15 5 4 12 -1 15 -10 5 -13 9 -13 22 -3 12 10 14 10 8 0 -4
-7 -2 -12 4 -12 6 0 8 -5 4 -12 -4 -6 -3 -8 4 -4 6 3 15 -2 21 -11 8 -14 10
-15 11 -3 0 12 2 12 9 2 4 -7 14 -14 22 -15 8 -2 20 -6 26 -10 7 -5 17 -5 23
-2 5 3 10 -1 10 -9 0 -9 5 -16 11 -16 5 0 7 5 3 11 -9 14 38 -10 48 -25 5 -7
8 -6 8 4 0 13 1 13 10 0 8 -12 10 -12 10 5 0 18 1 18 16 -4 13 -18 18 -20 25
-10 5 9 9 9 9 3 0 -16 36 -24 49 -11 8 8 11 8 11 -1 0 -7 3 -11 8 -11 28 5 52
-3 52 -17 0 -8 5 -12 10 -9 9 6 14 -8 11 -27 0 -5 4 -8 9 -8 5 0 9 -3 9 -7 -3
-19 2 -33 12 -33 5 0 7 5 3 12 -4 7 -3 8 4 4 6 -4 9 -13 5 -21 -3 -8 0 -15 7
-15 6 0 8 -5 5 -10 -3 -6 1 -10 9 -10 10 0 16 -9 16 -22 0 -15 3 -19 8 -11 5
8 13 9 22 3 13 -9 13 -10 0 -10 -12 -1 -11 -3 3 -11 10 -6 14 -15 10 -22 -4
-7 1 -6 10 2 15 12 17 12 11 -4 -5 -13 -4 -16 4 -11 8 5 12 -2 12 -19 0 -16 4
-24 11 -19 8 4 8 0 0 -15 -8 -14 -8 -21 -1 -21 5 0 10 -10 10 -21 0 -12 8 -28
18 -36 9 -8 12 -12 5 -9 -7 4 -9 -1 -6 -14 3 -11 12 -20 20 -20 8 0 11 -4 8
-10 -3 -5 0 -10 7 -10 9 0 9 -3 -2 -10 -10 -6 -11 -10 -2 -10 6 0 12 -6 12
-14 0 -8 9 -18 20 -21 11 -3 20 -13 20 -22 0 -12 3 -13 14 -4 11 9 16 9 22 0
4 -8 3 -9 -4 -5 -7 4 -12 5 -12 2 0 -2 13 -11 30 -19 21 -11 30 -12 34 -3 3 7
5 7 5 -1 1 -7 13 -13 27 -13 16 0 23 -4 18 -11 -5 -8 -1 -8 14 0 15 8 23 8 28
0 3 -6 22 -9 42 -7 27 3 36 0 40 -14 2 -10 8 -18 13 -18 5 0 9 -7 9 -15 0 -8
5 -15 11 -15 5 0 7 -4 4 -10 -3 -5 1 -10 9 -10 15 0 21 -12 17 -33 -1 -5 3 -6
9 -2 5 3 10 1 10 -5 0 -7 9 -9 23 -5 17 5 19 4 7 -4 -13 -9 -12 -11 4 -11 11
0 16 -3 12 -7 -4 -4 17 -15 46 -24 38 -12 55 -13 60 -5 6 8 8 7 8 -1 0 -7 5
-13 11 -13 5 0 7 6 3 13 -6 10 -4 10 7 0 7 -7 17 -13 22 -13 4 0 5 6 1 13 -6
10 -4 10 7 0 16 -16 33 -17 23 -2 -4 8 0 8 15 0 15 -8 21 -9 21 -1 0 6 5 8 10
5 6 -3 10 -1 10 4 0 6 6 11 13 11 20 0 69 58 54 64 -8 3 -8 5 2 5 19 1 -6 31
-26 31 -9 0 -11 5 -7 13 5 8 2 8 -9 -2 -14 -11 -17 -11 -18 0 -1 8 -1 18 0 22
1 5 -3 6 -9 2 -6 -3 -7 -11 -4 -17 4 -6 -5 -3 -19 8 -15 10 -27 25 -27 32 0 6
-5 12 -11 12 -8 0 -8 5 1 15 10 12 10 15 -1 15 -11 0 -11 2 1 10 8 5 11 10 5
10 -5 0 1 7 13 16 17 12 20 19 12 29 -8 10 -8 15 1 21 8 5 10 3 4 -7 -4 -8 3
-3 17 11 13 14 23 33 22 44 -2 10 -1 16 3 12 3 -3 12 -1 20 5 10 9 11 15 2 26
-10 11 -8 12 6 7 13 -5 16 -4 11 4 -4 7 -1 15 8 18 9 3 16 10 16 16 0 5 -5 6
-11 2 -8 -4 -7 0 1 15 6 12 15 19 20 16 4 -3 6 4 3 14 -3 13 1 21 14 24 16 4
16 5 -2 6 -17 1 -18 3 -5 11 11 7 12 10 2 10 -10 0 -10 4 2 15 8 9 13 22 10
30 -4 8 -1 15 6 15 6 0 8 5 5 10 -3 6 -3 10 2 10 4 0 8 18 7 40 0 23 3 43 6
45 4 3 6 18 4 35 -2 16 1 30 7 30 6 0 3 7 -5 16 -18 18 -21 28 -6 19 12 -7 8
60 -3 72 -4 3 -7 17 -7 30 0 14 -4 21 -10 18 -6 -4 -9 -3 -8 2 5 19 -14 51
-33 56 -13 4 -18 10 -13 18 4 7 3 10 -4 5 -6 -3 -17 0 -25 8 -8 8 -16 13 -19
11 -2 -2 -4 5 -5 15 -1 11 3 20 9 20 6 0 8 3 5 7 -4 3 1 12 11 20 11 10 12 12
2 8 -9 -4 -7 0 4 9 10 8 15 19 11 25 -3 6 1 11 10 11 9 0 14 4 10 9 -3 5 5 17
17 27 19 14 20 15 4 10 -19 -7 -19 -6 -2 13 13 15 14 20 4 24 -9 4 -7 6 4 6
11 1 15 6 12 16 -4 8 -1 15 6 15 6 0 10 8 8 18 -2 9 3 23 12 30 13 10 12 11
-5 6 -17 -4 -16 -3 3 8 12 8 20 17 16 20 -3 4 3 4 15 1 12 -3 21 -12 21 -19 0
-13 13 -19 34 -15 5 1 3 -6 -5 -15 -9 -12 -9 -15 -1 -10 7 4 12 2 12 -4 0 -6
4 -8 10 -5 6 3 10 -1 10 -10 0 -9 5 -13 10 -10 6 3 10 0 10 -8 0 -7 12 -19 26
-25 14 -7 22 -17 19 -22 -4 -6 1 -7 11 -3 12 4 15 3 10 -5 -5 -8 0 -12 12 -12
11 0 22 -7 26 -15 3 -8 12 -15 21 -15 8 0 15 -5 15 -11 0 -5 4 -8 9 -5 4 3 7
-15 6 -40 -1 -26 4 -52 12 -62 8 -9 12 -12 9 -6 -3 6 1 11 9 11 8 0 14 -3 13
-6 -3 -28 4 -31 23 -10 18 21 20 22 15 4 -5 -18 -5 -18 6 -4 7 9 25 15 41 15
15 -1 27 3 27 9 0 5 4 4 9 -3 4 -8 12 -14 16 -14 4 0 12 6 16 14 6 9 9 9 9 1
0 -6 9 -10 19 -8 12 2 21 -3 24 -16 3 -12 1 -17 -6 -12 -7 4 -8 0 -4 -11 4 -9
3 -15 -1 -13 -9 6 -33 -19 -25 -27 6 -6 -12 -10 -29 -7 -5 0 -7 -2 -6 -7 3
-15 -22 -62 -33 -62 -7 0 -9 -3 -6 -7 4 -3 -2 -12 -13 -20 -11 -8 -20 -19 -20
-25 0 -7 7 -3 16 8 14 18 15 18 4 -3 -6 -13 -15 -23 -21 -23 -5 0 -15 -13 -20
-30 -6 -17 -16 -27 -22 -23 -6 4 -8 0 -4 -10 4 -10 2 -16 -6 -14 -7 1 -11 -4
-9 -11 1 -7 -6 -21 -16 -30 -10 -9 -13 -15 -7 -12 6 3 -3 -7 -20 -23 -23 -20
-25 -26 -10 -21 19 6 19 5 -1 -13 -12 -10 -20 -26 -19 -35 2 -10 0 -17 -3 -17
-20 3 -25 -2 -12 -11 13 -8 13 -10 -2 -10 -12 0 -15 -5 -11 -17 5 -11 3 -14
-6 -8 -10 6 -11 3 -1 -15 7 -12 8 -20 2 -16 -5 3 -9 -5 -9 -19 -1 -15 4 -22
11 -18 6 3 6 0 -1 -8 -16 -17 -17 -33 -1 -23 8 5 9 2 5 -9 -4 -12 -1 -17 10
-17 14 0 14 -2 -3 -16 -10 -8 -13 -12 -6 -9 9 5 15 -1 19 -14 3 -12 10 -18 17
-14 6 4 4 -2 -4 -12 -9 -11 -10 -16 -2 -11 7 4 12 1 12 -8 0 -9 4 -16 9 -16
12 0 71 -56 71 -67 0 -6 10 -18 23 -29 l22 -19 -20 24 -20 25 27 -20 c14 -10
25 -23 25 -27 -1 -5 7 -14 17 -20 52 -31 95 -97 63 -97 -5 0 -3 -8 4 -17 8 -9
9 -14 3 -10 -6 3 -11 -1 -11 -9 0 -9 6 -13 16 -9 8 3 12 3 8 -1 -4 -4 1 -17
10 -28 17 -20 17 -20 -1 -6 -18 14 -18 14 -6 -7 12 -18 17 -20 29 -10 12 9 13
9 7 0 -4 -8 -2 -13 4 -13 6 0 8 -5 4 -11 -3 -6 0 -15 7 -20 10 -6 11 -9 2 -9
-17 0 -17 -42 0 -59 9 -11 9 -12 0 -7 -9 5 -12 -4 -10 -33 1 -21 5 -37 10 -34
4 2 7 -1 7 -8 0 -9 3 -9 14 0 11 9 16 9 22 0 5 -8 3 -9 -6 -4 -9 6 -11 4 -5
-5 6 -10 10 -10 19 2 6 8 19 14 28 12 10 -1 21 2 24 7 4 6 11 6 19 -1 10 -8
15 -8 20 0 5 8 10 8 20 0 10 -8 15 -8 20 0 5 8 10 8 20 0 10 -8 15 -8 20 0 5
8 10 8 20 0 10 -8 15 -8 20 0 5 8 10 8 20 0 10 -8 15 -8 20 0 5 8 10 8 20 0
10 -8 15 -8 20 0 5 8 10 8 20 0 9 -8 15 -8 20 -1 4 7 18 6 42 -4 26 -11 33
-12 25 -2 -9 10 -3 13 25 15 20 2 40 5 44 8 4 2 10 0 13 -4 3 -5 25 -6 48 -3
55 8 70 7 86 -2 6 -5 12 -4 12 1 0 5 19 7 41 5 33 -4 40 -2 35 8 -4 8 0 5 8
-5 9 -11 16 -15 16 -10 0 13 83 5 92 -9 4 -7 11 -7 22 2 11 9 16 10 16 2 0
-12 40 -9 61 5 8 5 9 3 5 -5 -10 -15 25 -11 37 4 4 6 10 6 15 -2 8 -13 41 -11
64 3 6 4 8 3 5 -3 -4 -5 6 -10 23 -10 18 0 27 4 23 11 -4 6 0 5 8 -1 12 -10
18 -10 27 -1 7 7 12 8 12 3 0 -6 18 -10 40 -11 23 0 37 3 33 9 -4 6 -1 7 8 2
7 -5 26 -10 43 -12 16 -2 36 -9 45 -16 8 -6 12 -7 9 -2 -3 6 0 16 8 23 11 10
14 10 14 0 0 -10 2 -10 8 -1 9 14 68 10 65 -5 -1 -5 7 -7 19 -4 14 3 19 1 14
-6 -4 -7 -2 -12 4 -12 6 0 8 -5 4 -13 -5 -7 0 -6 11 3 17 14 18 13 13 -8 -4
-15 -2 -25 7 -28 8 -3 11 -13 8 -21 -4 -11 -2 -14 5 -9 7 4 12 2 12 -3 0 -6 5
-11 11 -11 5 0 8 4 5 8 -2 4 4 8 14 8 10 0 16 -4 14 -8 -9 -14 9 -8 29 9 15
13 18 14 12 3 -7 -13 -6 -13 7 -2 13 10 17 10 21 0 3 -8 6 -6 6 5 1 10 5 16
10 12 5 -3 13 0 16 6 4 5 13 8 21 5 8 -3 14 1 14 9 0 8 4 15 9 15 10 0 3 39
-11 57 -14 17 1 36 24 30 12 -3 22 0 25 10 5 12 7 12 14 1 6 -9 9 -10 9 -1 0
9 7 10 25 3 20 -8 23 -7 18 7 -5 12 -2 15 10 10 10 -4 17 -2 17 5 0 6 3 8 7 5
3 -4 12 -2 20 4 10 9 10 15 2 25 -9 11 -8 14 0 14 7 0 9 4 6 10 -4 6 1 7 11 3
12 -4 15 -3 10 5 -5 8 -2 10 8 6 9 -3 16 -2 16 4 0 5 8 9 18 8 9 0 16 4 15 10
-1 7 5 11 15 10 9 0 16 5 15 11 -2 7 3 12 10 10 7 -1 12 8 11 21 0 12 3 22 6
22 4 0 6 11 5 25 -2 16 2 25 11 25 8 0 14 4 14 10 0 5 6 9 13 7 6 -1 11 6 11
16 -2 15 1 16 14 5 11 -9 14 -9 9 -1 -5 7 1 16 13 23 11 6 20 18 20 26 0 9 5
12 13 8 8 -5 8 -2 -2 9 -10 13 -10 17 -1 17 7 0 10 8 7 20 -3 11 -2 18 3 15 4
-3 10 11 12 31 2 19 0 38 -5 41 -4 3 -6 11 -3 19 3 8 0 14 -6 14 -6 0 -9 3 -5
6 3 4 -2 14 -11 23 -10 9 -11 12 -3 6 12 -9 12 -7 1 12 -8 12 -17 20 -20 18
-4 -2 -12 5 -20 15 -8 10 -18 16 -23 13 -6 -3 -7 -1 -4 5 10 15 -3 42 -19 42
-13 0 -19 13 -15 33 1 5 -2 6 -7 3 -5 -3 -18 2 -28 10 -10 9 -13 13 -6 9 6 -3
12 -1 12 4 0 6 -4 11 -10 11 -5 0 -10 9 -10 21 0 13 -4 18 -12 13 -8 -5 -9 -2
-5 10 8 19 -29 62 -37 43 -2 -7 -5 -2 -5 10 -1 16 -6 21 -16 17 -11 -4 -19 3
-26 25 -8 24 -14 29 -24 21 -9 -8 -12 -6 -12 7 0 43 -3 49 -13 33 -8 -12 -10
-9 -10 12 0 19 -10 34 -30 49 -20 16 -27 26 -20 34 6 7 6 15 -1 22 -7 7 -2 18
15 34 14 13 26 29 26 34 0 6 -5 3 -11 -5 -9 -13 -10 -13 -6 0 2 8 10 15 17 15
7 0 18 9 24 20 6 11 16 23 21 27 6 4 6 8 2 8 -4 0 -2 6 4 13 13 13 132 20 124
7 -3 -5 4 -6 15 -3 11 3 17 10 13 17 -3 6 4 2 16 -9 16 -14 22 -15 19 -5 -2
10 7 16 27 18 16 2 33 9 37 15 6 9 8 8 8 -1 0 -7 5 -10 10 -7 6 4 7 12 3 18
-4 7 0 6 10 -2 10 -8 17 -9 17 -3 0 6 8 11 18 11 39 1 51 5 49 15 -1 5 4 10
11 11 7 0 17 7 22 15 5 8 10 11 10 5 0 -5 5 -2 11 8 6 9 14 15 19 12 4 -3 11
2 14 11 3 9 13 14 21 11 9 -4 12 -1 9 7 -3 8 4 16 15 19 12 3 21 13 21 22 0 9
5 13 10 10 6 -3 10 -1 10 6 0 6 12 22 26 35 14 14 22 29 18 36 -4 6 -3 8 4 4
6 -3 13 3 17 14 4 11 11 17 17 14 7 -5 9 -1 5 9 -4 10 -1 17 5 17 6 0 8 3 5 7
-4 3 0 11 8 17 12 10 24 46 27 83 1 6 8 8 17 5 14 -5 14 -4 1 13 -12 15 -12
17 -1 10 11 -6 13 -4 8 8 -3 10 -2 17 4 17 6 0 5 8 -2 21 -9 17 -8 20 2 14 8
-6 11 -4 6 7 -3 9 0 21 6 28 9 10 9 11 -3 5 -12 -6 -13 -5 -2 6 16 17 16 56 0
62 -8 3 -5 6 6 6 15 1 16 4 6 16 -10 12 -10 15 1 15 11 0 11 2 -1 10 -12 8
-13 11 -1 19 8 5 9 11 3 15 -5 3 -8 19 -6 36 2 16 -1 30 -6 30 -5 0 -7 9 -5
20 2 11 -1 22 -6 25 -5 4 -7 11 -4 16 4 5 1 9 -6 9 -8 0 -7 5 2 17 10 11 10
14 2 9 -12 -6 -18 11 -14 36 0 5 -4 8 -9 8 -6 0 -10 9 -10 20 0 11 -5 20 -11
20 -5 0 -7 5 -4 10 3 6 2 10 -4 10 -7 0 -7 8 -1 24 5 13 6 27 2 32 -4 4 0 5 8
2 15 -5 17 3 20 65 1 11 6 15 13 10 7 -4 5 2 -3 12 -8 10 -10 16 -3 12 14 -9
30 12 17 22 -12 8 -14 41 -3 41 5 0 9 10 9 23 0 13 6 29 13 36 7 9 7 11 1 8
-7 -4 -15 0 -18 9 -4 10 -2 13 6 8 8 -5 9 -2 5 9 -4 10 -1 17 6 17 8 0 6 4 -3
10 -8 5 -12 10 -8 10 4 0 3 14 -2 30 -5 17 -5 28 -1 26 5 -3 8 12 7 34 -1 25
-6 42 -16 45 -13 5 -13 7 0 15 12 8 12 10 1 10 -10 0 -11 3 -2 14 8 10 9 16 1
21 -7 4 -7 12 0 26 9 15 7 21 -5 25 -8 3 -12 10 -9 15 3 6 0 17 -8 26 -9 12
-9 15 0 9 6 -4 12 -2 12 3 0 6 -5 11 -11 11 -6 0 -9 9 -6 20 3 10 0 21 -7 24
-7 3 -6 5 3 5 11 1 11 4 0 18 -12 15 -12 16 5 10 17 -7 17 -6 5 10 -8 10 -18
21 -24 25 -6 5 -4 8 5 8 12 0 12 2 2 9 -17 11 -17 21 0 32 7 5 8 9 2 9 -6 0
-11 7 -11 15 0 8 4 15 8 15 5 0 5 7 2 17 -4 9 -2 14 3 11 5 -4 9 7 9 23 1 16
-4 29 -10 29 -5 0 -4 4 3 9 17 11 17 21 0 32 -7 5 -8 9 -2 9 5 0 9 16 8 38 -1
20 -3 43 -3 51 -1 8 -7 11 -18 7 -16 -6 -16 -6 0 12 9 10 14 22 10 26 -13 13
-9 45 6 51 8 3 12 3 8 -1 -4 -4 2 -13 13 -21 11 -8 20 -21 20 -29 0 -8 4 -13
8 -10 4 2 9 -7 10 -22 1 -14 9 -30 17 -34 8 -5 12 -15 8 -25 -4 -11 -3 -14 5
-9 8 5 12 0 12 -13 0 -12 5 -21 12 -21 6 0 8 -3 5 -7 -4 -3 3 -18 15 -31 13
-14 17 -22 11 -18 -16 9 -17 -10 -2 -19 6 -4 8 -13 5 -21 -3 -8 -1 -14 4 -14
6 0 10 -9 10 -19 0 -11 5 -23 10 -26 6 -4 8 -10 5 -15 -3 -5 -1 -11 4 -15 6
-3 8 -12 4 -21 -3 -8 3 -24 13 -36 11 -12 13 -18 7 -14 -17 10 -17 -9 0 -26
16 -15 11 -42 -5 -32 -7 4 -8 2 -4 -5 4 -6 11 -9 16 -6 4 2 8 -8 8 -23 0 -47
6 -82 15 -82 4 0 5 -5 2 -10 -4 -6 -12 -7 -18 -3 -7 3 -3 -4 8 -17 11 -13 14
-20 7 -16 -13 8 -12 -19 3 -55 3 -10 1 -20 -4 -24 -6 -3 -9 -11 -5 -16 3 -5
10 -7 15 -4 5 4 9 2 9 -3 0 -5 7 -9 15 -9 8 0 11 5 8 10 -4 7 1 8 13 3 10 -4
15 -4 12 0 -11 10 12 45 24 38 7 -4 8 -3 4 4 -4 7 -1 12 6 12 9 0 9 3 -2 10
-10 6 -11 10 -2 10 6 0 12 9 12 20 0 11 5 20 11 20 8 0 7 6 -2 17 -12 15 -12
16 5 10 15 -6 17 -5 7 7 -9 11 -8 15 6 20 15 6 15 8 3 16 -12 8 -12 10 3 16
14 5 15 9 6 20 -9 11 -8 14 1 14 9 0 10 3 1 14 -9 11 -8 15 5 20 13 5 14 9 4
21 -7 8 -8 15 -4 15 5 0 10 13 10 30 1 20 -2 27 -10 23 -6 -4 -5 1 3 10 10 13
11 20 2 30 -6 8 -8 17 -4 21 12 11 11 56 -1 56 -6 0 -5 4 2 9 14 9 13 32 -3
44 -6 4 -4 11 5 17 13 8 12 10 -5 11 -11 0 -15 3 -9 5 7 3 9 20 6 42 -2 20 -5
45 -5 55 -1 9 -5 17 -9 17 -4 0 -5 7 -2 15 4 9 0 15 -7 15 -11 0 -11 3 1 10
11 7 11 10 2 10 -7 0 -10 4 -7 10 3 6 1 10 -6 10 -8 0 -7 5 2 17 10 11 10 14
2 9 -9 -5 -13 0 -13 13 0 12 -4 21 -9 21 -6 0 -8 9 -6 20 2 11 -1 20 -6 20 -6
0 -7 5 -4 10 3 6 0 10 -7 10 -9 0 -9 3 2 10 13 8 12 10 -2 10 -10 0 -18 5 -18
11 0 5 4 7 10 4 6 -3 7 1 4 9 -3 9 -9 14 -14 11 -4 -2 -6 7 -4 20 1 14 -3 25
-9 25 -7 0 -5 5 3 10 12 8 10 10 -10 10 -17 0 -21 3 -12 9 11 6 10 11 -3 24
-8 9 -17 20 -18 24 -1 4 -6 7 -11 5 -5 -2 -3 5 5 14 12 15 12 17 0 9 -11 -6
-13 -4 -8 9 4 10 3 15 -3 11 -6 -4 -13 7 -16 24 -4 17 -11 31 -16 31 -5 0 -6
5 -3 10 3 6 -2 10 -12 11 -10 0 -13 3 -6 6 10 3 9 8 -2 20 -8 8 -12 20 -8 26
4 7 -1 6 -10 -2 -15 -12 -17 -12 -11 2 3 9 -1 24 -10 33 -9 8 -14 20 -11 25 4
5 -4 9 -16 9 -16 0 -19 3 -11 13 9 10 6 17 -8 27 -11 8 -20 20 -20 27 0 7 -4
13 -9 13 -5 0 -13 9 -16 20 -3 11 -13 20 -21 20 -8 0 -14 7 -12 17 2 10 -7 22
-20 29 -13 6 -23 15 -22 20 1 4 -6 11 -15 14 -9 3 -17 9 -17 13 0 21 -12 46
-19 41 -5 -3 -9 0 -9 6 0 6 -5 8 -10 5 -6 -4 -9 -1 -8 7 2 7 -3 12 -9 10 -7
-1 -13 2 -13 7 0 14 -48 60 -56 53 -4 -4 -5 0 -2 9 4 10 -6 23 -28 38 -19 13
-34 28 -34 33 0 5 -6 6 -12 2 -8 -5 -8 -2 1 10 8 9 10 16 5 14 -17 -5 -54 23
-54 40 0 13 -2 14 -9 4 -6 -10 -10 -9 -14 7 -3 12 -13 21 -24 21 -15 0 -16 2
-3 11 12 9 10 10 -8 6 -13 -3 -22 -3 -19 0 10 9 -45 53 -57 46 -6 -4 -5 1 3
11 8 9 10 16 5 15 -22 -4 -35 3 -75 41 -24 22 -49 38 -56 36 -7 -3 -10 3 -8
15 2 11 0 17 -5 14 -4 -3 -15 2 -23 10 -9 8 -21 15 -27 15 -16 0 -40 26 -32
35 4 4 3 6 -3 5 -23 -5 -36 1 -29 13 5 7 1 7 -12 -3 -10 -8 -16 -11 -12 -6 8
10 -15 36 -32 36 -6 0 -21 9 -33 20 -12 11 -27 18 -34 16 -7 -3 -13 1 -13 9 0
8 -7 15 -16 15 -17 0 -135 59 -145 72 -3 4 -18 9 -33 10 -16 2 -34 11 -40 20
-6 10 -17 18 -24 18 -7 0 -10 -5 -6 -12 4 -7 3 -8 -4 -4 -7 4 -12 13 -12 21 0
9 -7 11 -22 7 -14 -3 -19 -1 -14 6 5 8 1 10 -9 5 -10 -3 -21 0 -26 8 -7 11 -9
11 -9 1 0 -7 -5 -10 -10 -7 -6 4 -8 10 -5 15 3 4 -4 6 -16 3 -12 -3 -24 0 -29
7 -4 6 -24 12 -44 12 -20 0 -36 4 -36 9 0 5 -10 9 -22 9 -19 0 -20 2 -8 11 12
9 11 10 -5 4 -52 -18 -51 -18 -35 -6 12 9 8 11 -18 7 -17 -2 -30 -1 -27 4 3 4
-4 10 -15 13 -11 3 -18 1 -14 -4 8 -13 -6 -11 -20 4 -8 7 -35 12 -69 11 -32
-1 -55 1 -52 5 2 4 -2 8 -10 8 -8 0 -15 -5 -15 -11 0 -6 -5 -4 -10 4 -5 8 -10
11 -10 7 0 -4 -10 -3 -21 4 -16 8 -20 8 -14 0 5 -8 -1 -10 -21 -5 -21 6 -25 4
-19 -7 5 -8 -2 -5 -15 6 -13 11 -20 14 -16 8 9 -16 -6 -17 -21 -2 -8 8 -13 7
-18 -2 -6 -8 -4 -10 5 -4 9 5 11 4 6 -4 -6 -9 -11 -9 -21 -1 -8 7 -19 9 -25 5
-5 -3 -10 -3 -11 2 0 4 -2 18 -3 30 -2 13 2 19 7 16 6 -4 8 1 4 11 -4 9 -3 15
2 12 8 -5 22 23 25 50 1 6 8 19 16 30 14 16 13 17 -4 10 -19 -6 -19 -6 -3 12
9 10 17 26 17 35 0 9 4 17 9 17 5 0 8 8 7 18 -2 9 2 20 7 24 15 9 17 38 4 38
-8 0 -7 3 1 9 8 4 14 12 14 17 0 5 5 8 12 6 7 -2 7 1 -1 9 -18 18 -16 48 2 55
11 5 12 10 6 18 -7 9 -6 19 5 34 12 17 12 22 2 22 -8 0 -9 3 -3 8 13 9 19 46
7 38 -6 -3 -5 5 1 18 7 13 16 22 22 18 7 -4 7 -1 0 9 -12 17 -13 39 -1 58 6 9
5 12 -1 8 -5 -3 -10 0 -10 8 0 8 5 11 10 8 6 -4 8 3 5 15 -4 12 -2 22 4 22 5
0 6 5 2 12 -4 6 -7 26 -8 45 -1 25 3 32 14 28 9 -3 7 1 -4 10 -11 8 -14 15 -7
15 7 0 10 4 7 8 -3 5 -6 43 -7 85 -1 43 -6 74 -11 71 -5 -3 -8 2 -6 12 2 11
-2 18 -9 17 -7 -2 -13 4 -13 12 0 18 -11 19 -29 3 -11 -10 -13 -10 -7 0 4 6 2
12 -3 12 -6 0 -11 -4 -11 -10z m-2445 -2807 c-2 -16 -6 -37 -8 -48 -3 -11 0
-26 6 -33 7 -9 6 -11 -6 -6 -11 4 -15 0 -13 -13 2 -10 -1 -21 -6 -24 -5 -3 -2
-13 7 -23 15 -15 15 -16 -1 -16 -14 0 -14 -3 -4 -15 11 -13 10 -14 -6 -8 -16
6 -17 4 -7 -9 7 -8 10 -18 6 -22 -4 -4 -9 -19 -10 -34 -2 -15 -4 -38 -6 -52
-1 -14 -6 -30 -10 -37 -4 -6 -2 -15 3 -18 7 -5 5 -12 -7 -21 -14 -11 -15 -13
-3 -14 9 0 11 -3 5 -8 -13 -9 -13 -72 0 -72 5 0 1 -7 -9 -15 -12 -9 -15 -15
-7 -15 10 0 10 -4 3 -12 -5 -7 -9 -33 -8 -58 2 -25 -2 -51 -8 -59 -8 -11 -8
-13 0 -8 7 4 14 0 17 -8 4 -10 1 -12 -10 -8 -11 4 -14 2 -9 -5 4 -7 1 -12 -6
-13 -10 0 -11 -2 0 -6 10 -4 10 -8 1 -19 -9 -11 -9 -14 0 -14 7 0 9 -5 5 -12
-14 -22 -11 -48 4 -48 12 0 12 -3 1 -16 -17 -21 -20 -42 -7 -50 6 -4 5 -10 -3
-15 -12 -8 -11 -11 1 -19 13 -9 13 -10 0 -10 -12 0 -12 -2 -1 -9 9 -6 10 -11
2 -15 -6 -4 -8 -13 -4 -19 12 -19 12 -37 1 -37 -6 0 -4 -7 3 -17 12 -15 12
-16 -4 -10 -11 4 -16 3 -12 -3 4 -6 -1 -17 -9 -26 -9 -8 -16 -12 -16 -7 0 4
-5 0 -11 -10 -9 -15 -13 -16 -27 -5 -14 11 -15 10 -9 -6 7 -17 6 -17 -9 -5
-10 8 -20 13 -23 12 -3 -2 -6 1 -6 6 0 5 -4 13 -9 18 -5 5 -6 3 -2 -4 4 -8 1
-13 -8 -13 -9 0 -16 5 -16 10 0 6 -7 10 -15 10 -8 0 -15 5 -15 11 0 5 -5 7
-10 4 -6 -3 -10 1 -10 9 0 9 -6 16 -13 16 -17 0 -44 33 -39 48 2 8 -2 10 -14
5 -13 -5 -16 -3 -11 10 4 11 1 17 -7 17 -16 0 -29 27 -19 42 3 7 1 8 -5 4 -7
-4 -12 -1 -12 9 0 10 -5 13 -12 9 -7 -5 -9 -2 -5 9 3 8 -1 21 -8 27 -11 9 -12
17 -5 31 8 15 7 17 -4 13 -11 -4 -13 0 -9 15 3 14 1 21 -8 21 -11 0 -11 2 1
10 12 8 12 10 1 10 -10 0 -10 6 4 26 9 15 13 24 8 21 -5 -4 -10 0 -10 8 0 8 3
13 5 10 8 -8 31 28 32 48 0 10 4 15 10 12 5 -3 7 0 4 8 -3 8 -1 18 5 22 6 3
11 15 11 27 0 14 5 18 16 14 8 -3 12 -2 9 3 -3 5 -1 12 5 16 6 4 8 11 5 16 -4
5 -1 9 5 9 6 0 9 4 6 9 -3 5 1 12 10 15 8 3 12 10 9 16 -3 5 -1 10 6 10 7 0
10 3 6 6 -5 6 0 15 30 48 7 8 9 16 6 20 -4 3 -1 6 5 6 7 0 12 5 12 11 0 6 10
19 23 30 19 16 19 18 3 12 -19 -6 -19 -6 0 14 10 11 22 18 27 16 4 -2 7 3 7
11 0 9 6 16 14 16 9 0 12 7 9 20 -4 14 1 22 15 27 12 5 21 12 21 16 0 14 28
36 37 29 5 -4 2 2 -6 13 -8 11 -10 17 -6 13 5 -5 16 1 23 12 8 11 19 17 25 14
8 -5 9 -1 4 11 -5 15 -4 16 9 5 13 -11 14 -10 10 2 -4 9 1 22 9 31 9 9 16 20
16 26 0 6 7 8 15 5 8 -4 15 -1 15 5 0 6 2 11 5 11 2 0 3 -12 0 -27z m3516
-2240 c13 -16 12 -17 -3 -4 -10 7 -18 15 -18 17 0 8 8 3 21 -13z m-501 -296
c-10 -17 -17 -34 -15 -38 3 -4 -3 -13 -13 -20 -16 -13 -16 -13 -2 5 14 18 13
19 -2 13 -11 -4 -21 0 -26 9 -5 9 -13 16 -18 16 -5 0 -8 4 -6 9 2 8 -13 13
-31 10 -5 -1 -6 3 -2 9 3 6 11 8 16 5 5 -4 9 -1 9 5 0 7 6 8 19 0 14 -7 22 -7
27 2 5 7 3 8 -7 3 -8 -5 -10 -4 -6 0 10 12 38 15 32 4 -4 -5 1 -6 9 -3 9 3 13
11 9 18 -4 6 0 5 9 -2 16 -12 15 -16 -2 -45z m-1030 -632 c14 -18 13 -19 -1
-8 -9 7 -19 10 -23 6 -4 -4 -4 1 0 10 3 10 7 17 8 15 1 -2 8 -12 16 -23z"/>
<path d="M1327 6103 c-4 -3 -7 -11 -7 -17 0 -6 5 -5 12 2 6 6 9 14 7 17 -3 3
-9 2 -12 -2z"/>
<path d="M4855 4680 c3 -5 8 -10 11 -10 2 0 4 5 4 10 0 6 -5 10 -11 10 -5 0
-7 -4 -4 -10z"/>
<path d="M1720 500 c-9 -6 -10 -10 -3 -10 6 0 15 5 18 10 8 12 4 12 -15 0z"/>
</g>
</svg>
